<svg width="77" height="69" viewBox="0 0 77 69" fill="none" xmlns="http://www.w3.org/2000/svg">
<path d="M4.27654 68.2856L6.66205 63.028L0.916056 63.5909L4.27654 68.2856ZM76.1833 4.2267C76.453 4.28634 76.7199 4.11611 76.7795 3.84649C76.8392 3.57686 76.6689 3.30994 76.3993 3.2503L76.1833 4.2267ZM4.10357 59.27C4.02508 57.2287 4.00234 55.2321 4.03593 53.2815L3.03608 53.2643C3.00215 55.2343 3.02514 57.2496 3.10431 59.3085L4.10357 59.27ZM4.32752 47.3067C4.49485 45.2706 4.73097 43.2923 5.0366 41.3739L4.04905 41.2165C3.73922 43.1614 3.50017 45.1649 3.33088 47.2248L4.32752 47.3067ZM6.23064 35.5283C6.72967 33.5532 7.31412 31.6535 7.98492 29.8316L7.04651 29.4861C6.36291 31.3427 5.76825 33.2761 5.26111 35.2833L6.23064 35.5283ZM10.3703 24.3813C11.2913 22.5911 12.3143 20.8948 13.4408 19.2954L12.6232 18.7196C11.4692 20.3582 10.4223 22.0942 9.48106 23.9238L10.3703 24.3813ZM17.2079 14.7108C17.8914 13.9965 18.6023 13.3081 19.3409 12.6461L18.6735 11.9015C17.9158 12.5806 17.1865 13.2867 16.4854 14.0195L17.2079 14.7108ZM19.3409 12.6461C20.0795 11.9841 20.8413 11.3524 21.6259 10.7509L21.0175 9.95732C20.2127 10.5744 19.4312 11.2223 18.6735 11.9015L19.3409 12.6461ZM26.5939 7.50619C28.3066 6.56087 30.1044 5.72887 31.9843 5.00856L31.6265 4.07476C29.7052 4.81094 27.8653 5.66222 26.1107 6.63069L26.5939 7.50619ZM37.6622 3.23174C39.5463 2.76359 41.4985 2.38977 43.5162 2.10909L43.3784 1.11862C41.3279 1.40387 39.3412 1.78417 37.4211 2.26125L37.6622 3.23174ZM49.4571 1.55957C51.3975 1.46496 53.3897 1.44595 55.4319 1.50163L55.4592 0.502004C53.3931 0.445674 51.3755 0.464838 49.4084 0.560752L49.4571 1.55957ZM61.4029 1.86328C63.3455 2.04257 65.3278 2.28289 67.3483 2.58351L67.4955 1.5944C65.4575 1.29119 63.4568 1.04859 61.4948 0.867509L61.4029 1.86328ZM73.247 3.61033C74.2179 3.80299 75.1967 4.00847 76.1833 4.2267L76.3993 3.2503C75.4058 3.03054 74.4199 2.82356 73.4417 2.62946L73.247 3.61033ZM4.27654 68.2856L6.66205 63.028L0.916056 63.5909L4.27654 68.2856ZM76.1833 4.2267C76.453 4.28634 76.7199 4.11611 76.7795 3.84649C76.8392 3.57686 76.6689 3.30994 76.3993 3.2503L76.1833 4.2267ZM4.10357 59.27C4.02508 57.2287 4.00234 55.2321 4.03593 53.2815L3.03608 53.2643C3.00215 55.2343 3.02514 57.2496 3.10431 59.3085L4.10357 59.27ZM4.32752 47.3067C4.49485 45.2706 4.73097 43.2923 5.0366 41.3739L4.04905 41.2165C3.73922 43.1614 3.50017 45.1649 3.33088 47.2248L4.32752 47.3067ZM6.23064 35.5283C6.72967 33.5532 7.31412 31.6535 7.98492 29.8316L7.04651 29.4861C6.36291 31.3427 5.76825 33.2761 5.26111 35.2833L6.23064 35.5283ZM10.3703 24.3813C11.2913 22.5911 12.3143 20.8948 13.4408 19.2954L12.6232 18.7196C11.4692 20.3582 10.4223 22.0942 9.48106 23.9238L10.3703 24.3813ZM17.2079 14.7108C17.8914 13.9965 18.6023 13.3081 19.3409 12.6461L18.6735 11.9015C17.9158 12.5806 17.1865 13.2867 16.4854 14.0195L17.2079 14.7108ZM19.3409 12.6461C20.0795 11.9841 20.8413 11.3524 21.6259 10.7509L21.0175 9.95732C20.2127 10.5744 19.4312 11.2223 18.6735 11.9015L19.3409 12.6461ZM26.5939 7.50619C28.3066 6.56087 30.1044 5.72887 31.9843 5.00856L31.6265 4.07476C29.7052 4.81094 27.8653 5.66222 26.1107 6.63069L26.5939 7.50619ZM37.6622 3.23174C39.5463 2.76359 41.4985 2.38977 43.5162 2.10909L43.3784 1.11862C41.3279 1.40387 39.3412 1.78417 37.4211 2.26125L37.6622 3.23174ZM49.4571 1.55957C51.3975 1.46496 53.3897 1.44595 55.4319 1.50163L55.4592 0.502004C53.3931 0.445674 51.3755 0.464838 49.4084 0.560752L49.4571 1.55957ZM61.4029 1.86328C63.3455 2.04257 65.3278 2.28289 67.3483 2.58351L67.4955 1.5944C65.4575 1.29119 63.4568 1.04859 61.4948 0.867509L61.4029 1.86328ZM73.247 3.61033C74.2179 3.80299 75.1967 4.00847 76.1833 4.2267L76.3993 3.2503C75.4058 3.03054 74.4199 2.82356 73.4417 2.62946L73.247 3.61033Z" fill="#AFAFAF"/>
</svg>
