<svg width="77" height="69" viewBox="0 0 77 69" fill="none" xmlns="http://www.w3.org/2000/svg">
<path d="M0.892005 3.24989C0.622379 3.30953 0.45215 3.57645 0.511788 3.84608C0.571423 4.1157 0.838344 4.28593 1.10797 4.2263L0.892005 3.24989ZM73.0142 68.2859L76.3747 63.5912L70.6287 63.0282L73.0142 68.2859ZM1.10797 4.2263C2.09456 4.00808 3.07337 3.8026 4.04427 3.60995L3.84964 2.62908C2.87146 2.82317 1.88553 3.03014 0.892005 3.24989L1.10797 4.2263ZM9.94299 2.58318C11.9636 2.28258 13.9459 2.04228 15.8885 1.863L15.7966 0.867232C13.8346 1.0483 11.8338 1.29088 9.79584 1.59406L9.94299 2.58318ZM21.8594 1.50141C23.9016 1.44575 25.8938 1.46477 27.8342 1.5594L27.8829 0.560582C25.9158 0.46465 23.8983 0.445467 21.8322 0.501778L21.8594 1.50141ZM33.7751 2.10897C35.7929 2.38967 37.745 2.76351 39.6291 3.23167L39.8702 2.26118C37.9502 1.78409 35.9635 1.40377 33.9129 1.11851L33.7751 2.10897ZM45.307 5.00855C47.1869 5.72887 48.9847 6.56089 50.6974 7.50623L51.1806 6.63073C49.426 5.66224 47.5861 4.81094 45.6648 4.07475L45.307 5.00855ZM55.6653 10.751C56.4499 11.3525 57.2117 11.9842 57.9503 12.6462L58.6177 11.9016C57.8601 11.2224 57.0786 10.5745 56.2738 9.95741L55.6653 10.751ZM57.9503 12.6462C58.6889 13.3082 59.3999 13.9966 60.0833 14.7109L60.8059 14.0196C60.1048 13.2869 59.3754 12.5807 58.6177 11.9016L57.9503 12.6462ZM63.8504 19.2955C64.9768 20.895 65.9999 22.5913 66.9209 24.3815L67.8101 23.924C66.8688 22.0944 65.822 20.3583 64.668 18.7197L63.8504 19.2955ZM69.3062 29.8318C69.9769 31.6537 70.5614 33.5534 71.0604 35.5285L72.0299 35.2835C71.5228 33.2763 70.9282 31.3429 70.2446 29.4863L69.3062 29.8318ZM72.2544 41.3741C72.56 43.2926 72.7961 45.2708 72.9634 47.3069L73.96 47.225C73.7908 45.1651 73.5517 43.1617 73.2419 41.2168L72.2544 41.3741ZM73.2549 53.2817C73.2885 55.2323 73.2658 57.229 73.1872 59.2703L74.1865 59.3087C74.2657 57.2498 74.2887 55.2346 74.2548 53.2645L73.2549 53.2817ZM0.892005 3.24989C0.622379 3.30953 0.45215 3.57645 0.511788 3.84608C0.571423 4.1157 0.838344 4.28593 1.10797 4.2263L0.892005 3.24989ZM73.0142 68.2859L76.3747 63.5912L70.6287 63.0282L73.0142 68.2859ZM1.10797 4.2263C2.09456 4.00808 3.07337 3.8026 4.04427 3.60995L3.84964 2.62908C2.87146 2.82317 1.88553 3.03014 0.892005 3.24989L1.10797 4.2263ZM9.94299 2.58318C11.9636 2.28258 13.9459 2.04228 15.8885 1.863L15.7966 0.867232C13.8346 1.0483 11.8338 1.29088 9.79584 1.59406L9.94299 2.58318ZM21.8594 1.50141C23.9016 1.44575 25.8938 1.46477 27.8342 1.5594L27.8829 0.560582C25.9158 0.46465 23.8983 0.445467 21.8322 0.501778L21.8594 1.50141ZM33.7751 2.10897C35.7929 2.38967 37.745 2.76351 39.6291 3.23167L39.8702 2.26118C37.9502 1.78409 35.9635 1.40377 33.9129 1.11851L33.7751 2.10897ZM45.307 5.00855C47.1869 5.72887 48.9847 6.56089 50.6974 7.50623L51.1806 6.63073C49.426 5.66224 47.5861 4.81094 45.6648 4.07475L45.307 5.00855ZM55.6653 10.751C56.4499 11.3525 57.2117 11.9842 57.9503 12.6462L58.6177 11.9016C57.8601 11.2224 57.0786 10.5745 56.2738 9.95741L55.6653 10.751ZM57.9503 12.6462C58.6889 13.3082 59.3999 13.9966 60.0833 14.7109L60.8059 14.0196C60.1048 13.2869 59.3754 12.5807 58.6177 11.9016L57.9503 12.6462ZM63.8504 19.2955C64.9768 20.895 65.9999 22.5913 66.9209 24.3815L67.8101 23.924C66.8688 22.0944 65.822 20.3583 64.668 18.7197L63.8504 19.2955ZM69.3062 29.8318C69.9769 31.6537 70.5614 33.5534 71.0604 35.5285L72.0299 35.2835C71.5228 33.2763 70.9282 31.3429 70.2446 29.4863L69.3062 29.8318ZM72.2544 41.3741C72.56 43.2926 72.7961 45.2708 72.9634 47.3069L73.96 47.225C73.7908 45.1651 73.5517 43.1617 73.2419 41.2168L72.2544 41.3741ZM73.2549 53.2817C73.2885 55.2323 73.2658 57.229 73.1872 59.2703L74.1865 59.3087C74.2657 57.2498 74.2887 55.2346 74.2548 53.2645L73.2549 53.2817Z" fill="#AFAFAF"/>
</svg>
