<svg width="277" height="33" viewBox="0 0 277 33" fill="none" xmlns="http://www.w3.org/2000/svg">
<path d="M0.785495 1.45165C0.536055 1.33318 0.429882 1.03493 0.54835 0.785492C0.666818 0.536053 0.965066 0.42988 1.21451 0.548349L0.785495 1.45165ZM277 0.999998L273.7 5.73745L271.247 0.510853L277 0.999998ZM1.21451 0.548349C2.10727 0.972357 3.00228 1.39237 3.8995 1.80837L3.47886 2.7156C2.57884 2.2983 1.68104 1.87698 0.785495 1.45165L1.21451 0.548349ZM9.30499 4.25414C11.1128 5.05201 12.9292 5.83371 14.7541 6.59906L14.3673 7.52124C12.5367 6.7535 10.7146 5.96936 8.90121 5.16899L9.30499 4.25414ZM20.2463 8.84282C22.0824 9.57315 23.9267 10.287 25.7791 10.9843L25.4268 11.9202C23.5686 11.2207 21.7185 10.5046 19.8767 9.77201L20.2463 8.84282ZM31.3502 13.0226C33.212 13.6842 35.0817 14.3291 36.9589 14.9572L36.6416 15.9055C34.7585 15.2755 32.883 14.6285 31.0154 13.9648L31.3502 13.0226ZM42.6022 16.7872C44.4869 17.3791 46.379 17.954 48.2783 18.5119L47.9964 19.4714C46.0912 18.9117 44.1932 18.335 42.3026 17.7413L42.6022 16.7872ZM53.9863 20.131C55.8914 20.6524 57.8035 21.1566 59.7225 21.6436L59.4765 22.6128C57.5516 22.1244 55.6334 21.6185 53.7223 21.0956L53.9863 20.131ZM65.4859 23.0493C67.4092 23.4995 69.3391 23.9324 71.2755 24.3479L71.0657 25.3256C69.1233 24.9088 67.1874 24.4746 65.258 24.0229L65.4859 23.0493ZM77.0869 25.5385C79.025 25.9169 80.9693 26.2779 82.9196 26.6212L82.7462 27.6061C80.7898 27.2616 78.8394 26.8995 76.8953 26.52L77.0869 25.5385ZM88.7725 27.5958C90.723 27.9021 92.6792 28.1908 94.6411 28.4618L94.5043 29.4524C92.5363 29.1806 90.5739 28.891 88.6174 28.5837L88.7725 27.5958ZM100.525 29.2193C102.485 29.4533 104.451 29.6697 106.423 29.8683L106.322 30.8632C104.345 30.6641 102.373 30.447 100.406 30.2122L100.525 29.2193ZM112.331 30.4085C114.298 30.5702 116.27 30.7142 118.247 30.8403L118.183 31.8383C116.2 31.7118 114.222 31.5674 112.249 31.4052L112.331 30.4085ZM124.171 31.1638C126.143 31.2534 128.12 31.3252 130.101 31.3791L130.074 32.3787C128.087 32.3247 126.104 32.2526 124.126 32.1627L124.171 31.1638ZM136.032 31.4866C137.02 31.4955 138.01 31.5 139 31.5V32.5C138.007 32.5 137.014 32.4955 136.023 32.4865L136.032 31.4866ZM139 31.5C139.99 31.5 140.98 31.4955 141.968 31.4866L141.977 32.4865C140.986 32.4955 139.993 32.5 139 32.5V31.5ZM147.899 31.3791C149.88 31.3252 151.857 31.2534 153.829 31.1638L153.874 32.1627C151.896 32.2526 149.913 32.3247 147.926 32.3787L147.899 31.3791ZM159.753 30.8403C161.73 30.7142 163.702 30.5702 165.669 30.4085L165.751 31.4052C163.778 31.5674 161.8 31.7118 159.817 31.8383L159.753 30.8403ZM171.577 29.8683C173.548 29.6697 175.514 29.4533 177.475 29.2193L177.594 30.2122C175.627 30.447 173.655 30.6641 171.677 30.8632L171.577 29.8683ZM183.359 28.4618C185.321 28.1908 187.277 27.9021 189.228 27.5958L189.383 28.5837C187.426 28.891 185.464 29.1806 183.496 29.4524L183.359 28.4618ZM195.08 26.6212C197.031 26.2779 198.975 25.9169 200.913 25.5385L201.105 26.52C199.161 26.8995 197.21 27.2616 195.254 27.6061L195.08 26.6212ZM206.725 24.3479C208.661 23.9324 210.591 23.4995 212.514 23.0493L212.742 24.0229C210.813 24.4746 208.877 24.9088 206.934 25.3256L206.725 24.3479ZM218.277 21.6436C220.196 21.1566 222.109 20.6524 224.014 20.131L224.278 21.0956C222.367 21.6185 220.448 22.1244 218.523 22.6128L218.277 21.6436ZM229.722 18.5119C231.621 17.954 233.513 17.3791 235.398 16.7872L235.697 17.7413C233.807 18.335 231.909 18.9117 230.004 19.4714L229.722 18.5119ZM241.041 14.9572C242.918 14.3291 244.788 13.6842 246.65 13.0226L246.985 13.9648C245.117 14.6285 243.241 15.2755 241.358 15.9056L241.041 14.9572ZM252.221 10.9843C254.073 10.287 255.918 9.57315 257.754 8.84283L258.123 9.77202C256.281 10.5046 254.431 11.2208 252.573 11.9202L252.221 10.9843ZM263.246 6.59907C265.071 5.83372 266.887 5.05202 268.695 4.25414L269.099 5.169C267.285 5.96937 265.463 6.75351 263.633 7.52125L263.246 6.59907ZM0.785495 1.45165C0.536055 1.33318 0.429882 1.03493 0.54835 0.785492C0.666818 0.536053 0.965066 0.42988 1.21451 0.548349L0.785495 1.45165ZM277 0.999998L273.7 5.73745L271.247 0.510853L277 0.999998ZM1.21451 0.548349C2.10727 0.972357 3.00228 1.39237 3.8995 1.80837L3.47886 2.7156C2.57884 2.2983 1.68104 1.87698 0.785495 1.45165L1.21451 0.548349ZM9.30499 4.25414C11.1128 5.05201 12.9292 5.83371 14.7541 6.59906L14.3673 7.52124C12.5367 6.7535 10.7146 5.96936 8.90121 5.16899L9.30499 4.25414ZM20.2463 8.84282C22.0824 9.57315 23.9267 10.287 25.7791 10.9843L25.4268 11.9202C23.5686 11.2207 21.7185 10.5046 19.8767 9.77201L20.2463 8.84282ZM31.3502 13.0226C33.212 13.6842 35.0817 14.3291 36.9589 14.9572L36.6416 15.9055C34.7585 15.2755 32.883 14.6285 31.0154 13.9648L31.3502 13.0226ZM42.6022 16.7872C44.4869 17.3791 46.379 17.954 48.2783 18.5119L47.9964 19.4714C46.0912 18.9117 44.1932 18.335 42.3026 17.7413L42.6022 16.7872ZM53.9863 20.131C55.8914 20.6524 57.8035 21.1566 59.7225 21.6436L59.4765 22.6128C57.5516 22.1244 55.6334 21.6185 53.7223 21.0956L53.9863 20.131ZM65.4859 23.0493C67.4092 23.4995 69.3391 23.9324 71.2755 24.3479L71.0657 25.3256C69.1233 24.9088 67.1874 24.4746 65.258 24.0229L65.4859 23.0493ZM77.0869 25.5385C79.025 25.9169 80.9693 26.2779 82.9196 26.6212L82.7462 27.6061C80.7898 27.2616 78.8394 26.8995 76.8953 26.52L77.0869 25.5385ZM88.7725 27.5958C90.723 27.9021 92.6792 28.1908 94.6411 28.4618L94.5043 29.4524C92.5363 29.1806 90.5739 28.891 88.6174 28.5837L88.7725 27.5958ZM100.525 29.2193C102.485 29.4533 104.451 29.6697 106.423 29.8683L106.322 30.8632C104.345 30.6641 102.373 30.447 100.406 30.2122L100.525 29.2193ZM112.331 30.4085C114.298 30.5702 116.27 30.7142 118.247 30.8403L118.183 31.8383C116.2 31.7118 114.222 31.5674 112.249 31.4052L112.331 30.4085ZM124.171 31.1638C126.143 31.2534 128.12 31.3252 130.101 31.3791L130.074 32.3787C128.087 32.3247 126.104 32.2526 124.126 32.1627L124.171 31.1638ZM136.032 31.4866C137.02 31.4955 138.01 31.5 139 31.5V32.5C138.007 32.5 137.014 32.4955 136.023 32.4865L136.032 31.4866ZM139 31.5C139.99 31.5 140.98 31.4955 141.968 31.4866L141.977 32.4865C140.986 32.4955 139.993 32.5 139 32.5V31.5ZM147.899 31.3791C149.88 31.3252 151.857 31.2534 153.829 31.1638L153.874 32.1627C151.896 32.2526 149.913 32.3247 147.926 32.3787L147.899 31.3791ZM159.753 30.8403C161.73 30.7142 163.702 30.5702 165.669 30.4085L165.751 31.4052C163.778 31.5674 161.8 31.7118 159.817 31.8383L159.753 30.8403ZM171.577 29.8683C173.548 29.6697 175.514 29.4533 177.475 29.2193L177.594 30.2122C175.627 30.447 173.655 30.6641 171.677 30.8632L171.577 29.8683ZM183.359 28.4618C185.321 28.1908 187.277 27.9021 189.228 27.5958L189.383 28.5837C187.426 28.891 185.464 29.1806 183.496 29.4524L183.359 28.4618ZM195.08 26.6212C197.031 26.2779 198.975 25.9169 200.913 25.5385L201.105 26.52C199.161 26.8995 197.21 27.2616 195.254 27.6061L195.08 26.6212ZM206.725 24.3479C208.661 23.9324 210.591 23.4995 212.514 23.0493L212.742 24.0229C210.813 24.4746 208.877 24.9088 206.934 25.3256L206.725 24.3479ZM218.277 21.6436C220.196 21.1566 222.109 20.6524 224.014 20.131L224.278 21.0956C222.367 21.6185 220.448 22.1244 218.523 22.6128L218.277 21.6436ZM229.722 18.5119C231.621 17.954 233.513 17.3791 235.398 16.7872L235.697 17.7413C233.807 18.335 231.909 18.9117 230.004 19.4714L229.722 18.5119ZM241.041 14.9572C242.918 14.3291 244.788 13.6842 246.65 13.0226L246.985 13.9648C245.117 14.6285 243.241 15.2755 241.358 15.9056L241.041 14.9572ZM252.221 10.9843C254.073 10.287 255.918 9.57315 257.754 8.84283L258.123 9.77202C256.281 10.5046 254.431 11.2208 252.573 11.9202L252.221 10.9843ZM263.246 6.59907C265.071 5.83372 266.887 5.05202 268.695 4.25414L269.099 5.169C267.285 5.96937 265.463 6.75351 263.633 7.52125L263.246 6.59907Z" fill="#AFAFAF"/>
</svg>
