<svg width="275" height="32" viewBox="0 0 275 32" fill="none" xmlns="http://www.w3.org/2000/svg">
<path d="M0.789935 30.5463C0.539346 30.6623 0.430252 30.9595 0.546268 31.2101C0.662284 31.4607 0.959476 31.5697 1.21007 31.4537L0.789935 30.5463ZM275 31L271.654 26.2949L269.252 31.5452L275 31ZM1.21007 31.4537C2.09895 31.0422 2.99006 30.6346 3.88339 30.2308L3.47156 29.3196C2.57546 29.7246 1.68157 30.1335 0.789935 30.5463L1.21007 31.4537ZM9.26436 27.8578C11.0633 27.084 12.8708 26.326 14.6868 25.5838L14.3085 24.6581C12.4869 25.4026 10.6737 26.163 8.86922 26.9392L9.26436 27.8578ZM20.1506 23.4087C21.9766 22.701 23.8108 22.0093 25.653 21.3337L25.3087 20.3949C23.4608 21.0726 21.6209 21.7664 19.7892 22.4763L20.1506 23.4087ZM31.1918 19.3596C33.0424 18.719 34.9007 18.0945 36.7666 17.4865L36.4567 16.5357C34.585 17.1456 32.721 17.772 30.8647 18.4146L31.1918 19.3596ZM42.3739 15.7154C44.2461 15.1428 46.1257 14.5865 48.0124 14.0468L47.7374 13.0854C45.8448 13.6268 43.9594 14.1847 42.0814 14.7591L42.3739 15.7154ZM53.6814 12.4808C55.5729 11.9768 57.4714 11.4893 59.3767 11.0185L59.1368 10.0477C57.2257 10.5199 55.3213 11.0089 53.4239 11.5146L53.6814 12.4808ZM65.098 9.65982C67.0068 9.22478 68.9222 8.80644 70.8439 8.40499L70.6394 7.42612C68.7118 7.82881 66.7905 8.24844 64.8757 8.68482L65.098 9.65982ZM76.6103 7.2548C78.5331 6.88934 80.4621 6.54072 82.3969 6.2091L82.228 5.22347C80.2872 5.55611 78.3523 5.9058 76.4236 6.27239L76.6103 7.2548ZM88.2027 5.26798C90.1371 4.9723 92.0773 4.69357 94.023 4.43195L93.8897 3.44087C91.938 3.70329 89.9919 3.98287 88.0516 4.27946L88.2027 5.26798ZM99.8576 3.70081C101.802 3.47492 103.751 3.26609 105.706 3.07446L105.608 2.07924C103.648 2.27145 101.692 2.48092 99.7422 2.70749L99.8576 3.70081ZM111.563 2.5531C113.513 2.39707 115.468 2.25816 117.428 2.1365L117.366 1.13842C115.4 1.26045 113.439 1.39978 111.483 1.55628L111.563 2.5531ZM123.301 1.8244C125.256 1.73794 127.215 1.66864 129.179 1.61664L129.153 0.616993C127.183 0.669145 125.218 0.738656 123.257 0.825378L123.301 1.8244ZM135.058 1.51296C136.038 1.50433 137.018 1.5 138 1.5V0.5C137.015 0.5 136.032 0.504338 135.049 0.512996L135.058 1.51296ZM138 1.5C138.982 1.5 139.962 1.50433 140.942 1.51296L140.951 0.512996C139.968 0.504338 138.985 0.5 138 0.5V1.5ZM146.821 1.61664C148.785 1.66864 150.744 1.73794 152.699 1.8244L152.743 0.825377C150.782 0.738655 148.817 0.669144 146.847 0.616993L146.821 1.61664ZM158.572 2.1365C160.532 2.25816 162.487 2.39707 164.437 2.5531L164.517 1.55628C162.561 1.39978 160.6 1.26044 158.634 1.13842L158.572 2.1365ZM170.294 3.07446C172.249 3.26609 174.198 3.47492 176.142 3.70081L176.258 2.70749C174.308 2.48092 172.352 2.27144 170.392 2.07923L170.294 3.07446ZM181.977 4.43195C183.923 4.69357 185.863 4.9723 187.797 5.26798L187.948 4.27946C186.008 3.98287 184.062 3.70329 182.11 3.44087L181.977 4.43195ZM193.603 6.2091C195.538 6.54072 197.467 6.88934 199.39 7.2548L199.576 6.27239C197.648 5.9058 195.713 5.55611 193.772 5.22347L193.603 6.2091ZM205.156 8.40498C207.078 8.80644 208.993 9.22477 210.902 9.65982L211.124 8.68482C209.21 8.24843 207.288 7.82881 205.361 7.42612L205.156 8.40498ZM216.623 11.0185C218.529 11.4893 220.427 11.9768 222.319 12.4808L222.576 11.5145C220.679 11.0089 218.774 10.5199 216.863 10.0477L216.623 11.0185ZM227.988 14.0468C229.874 14.5865 231.754 15.1428 233.626 15.7154L233.919 14.7591C232.041 14.1847 230.155 13.6268 228.263 13.0854L227.988 14.0468ZM239.233 17.4865C241.099 18.0945 242.958 18.719 244.808 19.3596L245.135 18.4146C243.279 17.772 241.415 17.1456 239.543 16.5357L239.233 17.4865ZM250.347 21.3337C252.189 22.0093 254.023 22.701 255.849 23.4087L256.211 22.4763C254.379 21.7664 252.539 21.0726 250.691 20.3949L250.347 21.3337ZM261.313 25.5838C263.129 26.326 264.937 27.084 266.736 27.8578L267.131 26.9392C265.326 26.163 263.513 25.4026 261.691 24.6581L261.313 25.5838ZM0.789935 30.5463C0.539346 30.6623 0.430252 30.9595 0.546268 31.2101C0.662284 31.4607 0.959476 31.5697 1.21007 31.4537L0.789935 30.5463ZM275 31L271.654 26.2949L269.252 31.5452L275 31ZM1.21007 31.4537C2.09895 31.0422 2.99006 30.6346 3.88339 30.2308L3.47156 29.3196C2.57546 29.7246 1.68157 30.1335 0.789935 30.5463L1.21007 31.4537ZM9.26436 27.8578C11.0633 27.084 12.8708 26.326 14.6868 25.5838L14.3085 24.6581C12.4869 25.4026 10.6737 26.163 8.86922 26.9392L9.26436 27.8578ZM20.1506 23.4087C21.9766 22.701 23.8108 22.0093 25.653 21.3337L25.3087 20.3949C23.4608 21.0726 21.6209 21.7664 19.7892 22.4763L20.1506 23.4087ZM31.1918 19.3596C33.0424 18.719 34.9007 18.0945 36.7666 17.4865L36.4567 16.5357C34.585 17.1456 32.721 17.772 30.8647 18.4146L31.1918 19.3596ZM42.3739 15.7154C44.2461 15.1428 46.1257 14.5865 48.0124 14.0468L47.7374 13.0854C45.8448 13.6268 43.9594 14.1847 42.0814 14.7591L42.3739 15.7154ZM53.6814 12.4808C55.5729 11.9768 57.4714 11.4893 59.3767 11.0185L59.1368 10.0477C57.2257 10.5199 55.3213 11.0089 53.4239 11.5146L53.6814 12.4808ZM65.098 9.65982C67.0068 9.22478 68.9222 8.80644 70.8439 8.40499L70.6394 7.42612C68.7118 7.82881 66.7905 8.24844 64.8757 8.68482L65.098 9.65982ZM76.6103 7.2548C78.5331 6.88934 80.4621 6.54072 82.3969 6.2091L82.228 5.22347C80.2872 5.55611 78.3523 5.9058 76.4236 6.27239L76.6103 7.2548ZM88.2027 5.26798C90.1371 4.9723 92.0773 4.69357 94.023 4.43195L93.8897 3.44087C91.938 3.70329 89.9919 3.98287 88.0516 4.27946L88.2027 5.26798ZM99.8576 3.70081C101.802 3.47492 103.751 3.26609 105.706 3.07446L105.608 2.07924C103.648 2.27145 101.692 2.48092 99.7422 2.70749L99.8576 3.70081ZM111.563 2.5531C113.513 2.39707 115.468 2.25816 117.428 2.1365L117.366 1.13842C115.4 1.26045 113.439 1.39978 111.483 1.55628L111.563 2.5531ZM123.301 1.8244C125.256 1.73794 127.215 1.66864 129.179 1.61664L129.153 0.616993C127.183 0.669145 125.218 0.738656 123.257 0.825378L123.301 1.8244ZM135.058 1.51296C136.038 1.50433 137.018 1.5 138 1.5V0.5C137.015 0.5 136.032 0.504338 135.049 0.512996L135.058 1.51296ZM138 1.5C138.982 1.5 139.962 1.50433 140.942 1.51296L140.951 0.512996C139.968 0.504338 138.985 0.5 138 0.5V1.5ZM146.821 1.61664C148.785 1.66864 150.744 1.73794 152.699 1.8244L152.743 0.825377C150.782 0.738655 148.817 0.669144 146.847 0.616993L146.821 1.61664ZM158.572 2.1365C160.532 2.25816 162.487 2.39707 164.437 2.5531L164.517 1.55628C162.561 1.39978 160.6 1.26044 158.634 1.13842L158.572 2.1365ZM170.294 3.07446C172.249 3.26609 174.198 3.47492 176.142 3.70081L176.258 2.70749C174.308 2.48092 172.352 2.27144 170.392 2.07923L170.294 3.07446ZM181.977 4.43195C183.923 4.69357 185.863 4.9723 187.797 5.26798L187.948 4.27946C186.008 3.98287 184.062 3.70329 182.11 3.44087L181.977 4.43195ZM193.603 6.2091C195.538 6.54072 197.467 6.88934 199.39 7.2548L199.576 6.27239C197.648 5.9058 195.713 5.55611 193.772 5.22347L193.603 6.2091ZM205.156 8.40498C207.078 8.80644 208.993 9.22477 210.902 9.65982L211.124 8.68482C209.21 8.24843 207.288 7.82881 205.361 7.42612L205.156 8.40498ZM216.623 11.0185C218.529 11.4893 220.427 11.9768 222.319 12.4808L222.576 11.5145C220.679 11.0089 218.774 10.5199 216.863 10.0477L216.623 11.0185ZM227.988 14.0468C229.874 14.5865 231.754 15.1428 233.626 15.7154L233.919 14.7591C232.041 14.1847 230.155 13.6268 228.263 13.0854L227.988 14.0468ZM239.233 17.4865C241.099 18.0945 242.958 18.719 244.808 19.3596L245.135 18.4146C243.279 17.772 241.415 17.1456 239.543 16.5357L239.233 17.4865ZM250.347 21.3337C252.189 22.0093 254.023 22.701 255.849 23.4087L256.211 22.4763C254.379 21.7664 252.539 21.0726 250.691 20.3949L250.347 21.3337ZM261.313 25.5838C263.129 26.326 264.937 27.084 266.736 27.8578L267.131 26.9392C265.326 26.163 263.513 25.4026 261.691 24.6581L261.313 25.5838Z" fill="#AFAFAF"/>
</svg>
